<svg xmlns="http://www.w3.org/2000/svg" viewBox="0 0 512 512" width="512" height="512">
<rect width="512" height="512" fill="#2B4193"/>
<g transform="translate(106,106) scale(3)"><g stroke="#FFFFFF" stroke-width="0.6" stroke-opacity="0.5" fill="none"><line x1="50.00" y1="6.34" x2="45.62" y2="4.24"/><line x1="50.00" y1="6.34" x2="42.40" y2="15.68"/><line x1="50.00" y1="6.34" x2="70.99" y2="9.24"/><line x1="50.00" y1="6.34" x2="25.19" y2="11.47"/><line x1="50.00" y1="6.34" x2="63.97" y2="24.00"/><line x1="50.00" y1="6.34" x2="57.35" y2="8.42"/><line x1="45.62" y1="4.24" x2="25.19" y2="11.47"/><line x1="45.62" y1="4.24" x2="57.35" y2="8.42"/><line x1="45.62" y1="4.24" x2="70.99" y2="9.24"/><line x1="45.62" y1="4.24" x2="26.88" y2="14.79"/><line x1="45.62" y1="4.24" x2="42.40" y2="15.68"/><line x1="42.40" y1="15.68" x2="22.33" y2="25.77"/><line x1="42.40" y1="15.68" x2="63.97" y2="24.00"/><line x1="42.40" y1="15.68" x2="47.62" y2="37.75"/><line x1="42.40" y1="15.68" x2="25.19" y2="11.47"/><line x1="70.99" y1="9.24" x2="84.78" y2="23.51"/><line x1="70.99" y1="9.24" x2="78.47" y2="19.05"/><line x1="70.99" y1="9.24" x2="57.35" y2="8.42"/><line x1="70.99" y1="9.24" x2="93.16" y2="34.63"/><line x1="25.19" y1="11.47" x2="26.88" y2="14.79"/><line x1="25.19" y1="11.47" x2="9.33" y2="29.95"/><line x1="25.19" y1="11.47" x2="22.33" y2="25.77"/><line x1="63.97" y1="24.00" x2="47.62" y2="37.75"/><line x1="63.97" y1="24.00" x2="81.45" y2="40.18"/><line x1="63.97" y1="24.00" x2="84.78" y2="23.51"/><line x1="63.97" y1="24.00" x2="62.79" y2="54.86"/><line x1="57.35" y1="8.42" x2="45.21" y2="20.19"/><line x1="57.35" y1="8.42" x2="78.47" y2="19.05"/><line x1="57.35" y1="8.42" x2="26.88" y2="14.79"/><line x1="57.35" y1="8.42" x2="69.92" y2="30.36"/><line x1="22.33" y1="25.77" x2="24.49" y2="46.48"/><line x1="22.33" y1="25.77" x2="9.33" y2="29.95"/><line x1="22.33" y1="25.77" x2="7.47" y2="50.42"/><line x1="22.33" y1="25.77" x2="47.62" y2="37.75"/><line x1="84.78" y1="23.51" x2="93.16" y2="34.63"/><line x1="84.78" y1="23.51" x2="81.45" y2="40.18"/><line x1="84.78" y1="23.51" x2="92.85" y2="52.26"/><line x1="84.78" y1="23.51" x2="78.47" y2="19.05"/><line x1="26.88" y1="14.79" x2="11.77" y2="32.10"/><line x1="26.88" y1="14.79" x2="45.21" y2="20.19"/><line x1="26.88" y1="14.79" x2="29.46" y2="36.09"/><line x1="47.62" y1="37.75" x2="62.79" y2="54.86"/><line x1="47.62" y1="37.75" x2="24.49" y2="46.48"/><line x1="47.62" y1="37.75" x2="37.35" y2="64.88"/><line x1="78.47" y1="19.05" x2="69.92" y2="30.36"/><line x1="78.47" y1="19.05" x2="93.16" y2="34.63"/><line x1="78.47" y1="19.05" x2="89.12" y2="45.36"/><line x1="9.33" y1="29.95" x2="7.47" y2="50.42"/><line x1="9.33" y1="29.95" x2="11.77" y2="32.10"/><line x1="9.33" y1="29.95" x2="5.12" y2="52.12"/><line x1="26.88" y1="14.79" x2="9.33" y2="29.95"/><line x1="81.45" y1="40.18" x2="92.85" y2="52.26"/><line x1="81.45" y1="40.18" x2="62.79" y2="54.86"/><line x1="81.45" y1="40.18" x2="77.06" y2="68.27"/><line x1="47.62" y1="37.75" x2="81.45" y2="40.18"/><line x1="45.21" y1="20.19" x2="29.46" y2="36.09"/><line x1="45.21" y1="20.19" x2="69.92" y2="30.36"/><line x1="45.21" y1="20.19" x2="54.66" y2="44.63"/><line x1="78.47" y1="19.05" x2="45.21" y2="20.19"/><line x1="24.49" y1="46.48" x2="37.35" y2="64.88"/><line x1="24.49" y1="46.48" x2="7.47" y2="50.42"/><line x1="24.49" y1="46.48" x2="16.63" y2="69.98"/><line x1="42.40" y1="15.68" x2="24.49" y2="46.48"/><line x1="93.16" y1="34.63" x2="89.12" y2="45.36"/><line x1="93.16" y1="34.63" x2="92.85" y2="52.26"/><line x1="93.16" y1="34.63" x2="94.03" y2="62.84"/><line x1="11.77" y1="32.10" x2="5.12" y2="52.12"/><line x1="11.77" y1="32.10" x2="29.46" y2="36.09"/><line x1="11.77" y1="32.10" x2="18.50" y2="55.18"/><line x1="25.19" y1="11.47" x2="11.77" y2="32.10"/><line x1="62.79" y1="54.86" x2="77.06" y2="68.27"/><line x1="62.79" y1="54.86" x2="37.35" y2="64.88"/><line x1="62.79" y1="54.86" x2="53.04" y2="79.86"/><line x1="69.92" y1="30.36" x2="54.66" y2="44.63"/><line x1="69.92" y1="30.36" x2="89.12" y2="45.36"/><line x1="69.92" y1="30.36" x2="75.90" y2="58.16"/><line x1="7.47" y1="50.42" x2="16.63" y2="69.98"/><line x1="7.47" y1="50.42" x2="5.12" y2="52.12"/><line x1="7.47" y1="50.42" x2="9.83" y2="72.40"/><line x1="92.85" y1="52.26" x2="94.03" y2="62.84"/><line x1="92.85" y1="52.26" x2="77.06" y2="68.27"/><line x1="92.85" y1="52.26" x2="83.01" y2="79.16"/><line x1="29.46" y1="36.09" x2="18.50" y2="55.18"/><line x1="29.46" y1="36.09" x2="54.66" y2="44.63"/><line x1="29.46" y1="36.09" x2="40.67" y2="62.59"/><line x1="37.35" y1="64.88" x2="53.04" y2="79.86"/><line x1="37.35" y1="64.88" x2="16.63" y2="69.98"/><line x1="37.35" y1="64.88" x2="32.51" y2="86.38"/><line x1="89.12" y1="45.36" x2="75.90" y2="58.16"/><line x1="89.12" y1="45.36" x2="94.03" y2="62.84"/><line x1="89.12" y1="45.36" x2="83.23" y2="74.51"/><line x1="5.12" y1="52.12" x2="9.83" y2="72.40"/><line x1="5.12" y1="52.12" x2="18.50" y2="55.18"/><line x1="5.12" y1="52.12" x2="19.39" y2="75.92"/><line x1="77.06" y1="68.27" x2="83.01" y2="79.16"/><line x1="77.06" y1="68.27" x2="53.04" y2="79.86"/><line x1="77.06" y1="68.27" x2="62.80" y2="91.00"/><line x1="54.66" y1="44.63" x2="40.67" y2="62.59"/><line x1="54.66" y1="44.63" x2="75.90" y2="58.16"/><line x1="54.66" y1="44.63" x2="59.10" y2="75.33"/><line x1="16.63" y1="69.98" x2="32.51" y2="86.38"/><line x1="16.63" y1="69.98" x2="9.83" y2="72.40"/><line x1="16.63" y1="69.98" x2="27.14" y2="89.92"/><line x1="94.03" y1="62.84" x2="83.23" y2="74.51"/><line x1="94.03" y1="62.84" x2="83.01" y2="79.16"/><line x1="94.03" y1="62.84" x2="72.33" y2="89.51"/><line x1="18.50" y1="55.18" x2="19.39" y2="75.92"/><line x1="18.50" y1="55.18" x2="40.67" y2="62.59"/><line x1="18.50" y1="55.18" x2="39.35" y2="84.85"/><line x1="53.04" y1="79.86" x2="62.80" y2="91.00"/><line x1="53.04" y1="79.86" x2="32.51" y2="86.38"/><line x1="53.04" y1="79.86" x2="83.01" y2="79.16"/><line x1="75.90" y1="58.16" x2="59.10" y2="75.33"/><line x1="75.90" y1="58.16" x2="83.23" y2="74.51"/><line x1="75.90" y1="58.16" x2="40.67" y2="62.59"/><line x1="9.83" y1="72.40" x2="19.39" y2="75.92"/><line x1="9.83" y1="72.40" x2="27.14" y2="89.92"/><line x1="9.83" y1="72.40" x2="32.51" y2="86.38"/><line x1="83.01" y1="79.16" x2="62.80" y2="91.00"/><line x1="83.01" y1="79.16" x2="72.33" y2="89.51"/><line x1="83.01" y1="79.16" x2="83.23" y2="74.51"/><line x1="40.67" y1="62.59" x2="59.10" y2="75.33"/><line x1="40.67" y1="62.59" x2="39.35" y2="84.85"/><line x1="40.67" y1="62.59" x2="19.39" y2="75.92"/><line x1="32.51" y1="86.38" x2="27.14" y2="89.92"/><line x1="32.51" y1="86.38" x2="48.04" y2="95.95"/><line x1="32.51" y1="86.38" x2="62.80" y2="91.00"/><line x1="83.23" y1="74.51" x2="72.33" y2="89.51"/><line x1="83.23" y1="74.51" x2="59.10" y2="75.33"/><line x1="19.39" y1="75.92" x2="39.35" y2="84.85"/><line x1="19.39" y1="75.92" x2="27.14" y2="89.92"/><line x1="62.80" y1="91.00" x2="48.04" y2="95.95"/><line x1="62.80" y1="91.00" x2="72.33" y2="89.51"/><line x1="59.10" y1="75.33" x2="39.35" y2="84.85"/><line x1="59.10" y1="75.33" x2="50.00" y2="93.66"/><line x1="27.14" y1="89.92" x2="48.04" y2="95.95"/><line x1="27.14" y1="89.92" x2="50.00" y2="93.66"/><line x1="27.14" y1="89.92" x2="39.35" y2="84.85"/><line x1="72.33" y1="89.51" x2="50.00" y2="93.66"/><line x1="72.33" y1="89.51" x2="48.04" y2="95.95"/><line x1="39.35" y1="84.85" x2="50.00" y2="93.66"/><line x1="39.35" y1="84.85" x2="48.04" y2="95.95"/><line x1="48.04" y1="95.95" x2="50.00" y2="93.66"/><line x1="62.80" y1="91.00" x2="50.00" y2="93.66"/></g><g fill="#FFFFFF"><circle cx="50.00" cy="6.34" r="1.7"/><circle cx="45.62" cy="4.24" r="1.7"/><circle cx="42.40" cy="15.68" r="1.7"/><circle cx="70.99" cy="9.24" r="1.7"/><circle cx="25.19" cy="11.47" r="1.7"/><circle cx="63.97" cy="24.00" r="1.7"/><circle cx="57.35" cy="8.42" r="1.7"/><circle cx="22.33" cy="25.77" r="1.7"/><circle cx="84.78" cy="23.51" r="1.7"/><circle cx="26.88" cy="14.79" r="1.7"/><circle cx="47.62" cy="37.75" r="1.7"/><circle cx="78.47" cy="19.05" r="1.7"/><circle cx="9.33" cy="29.95" r="1.7"/><circle cx="81.45" cy="40.18" r="1.7"/><circle cx="45.21" cy="20.19" r="1.7"/><circle cx="24.49" cy="46.48" r="1.7"/><circle cx="93.16" cy="34.63" r="1.7"/><circle cx="11.77" cy="32.10" r="1.7"/><circle cx="62.79" cy="54.86" r="1.7"/><circle cx="69.92" cy="30.36" r="1.7"/><circle cx="7.47" cy="50.42" r="1.7"/><circle cx="92.85" cy="52.26" r="1.7"/><circle cx="29.46" cy="36.09" r="1.7"/><circle cx="37.35" cy="64.88" r="1.7"/><circle cx="89.12" cy="45.36" r="1.7"/><circle cx="5.12" cy="52.12" r="1.7"/><circle cx="77.06" cy="68.27" r="1.7"/><circle cx="54.66" cy="44.63" r="1.7"/><circle cx="16.63" cy="69.98" r="1.7"/><circle cx="94.03" cy="62.84" r="1.7"/><circle cx="18.50" cy="55.18" r="1.7"/><circle cx="53.04" cy="79.86" r="1.7"/><circle cx="75.90" cy="58.16" r="1.7"/><circle cx="9.83" cy="72.40" r="1.7"/><circle cx="83.01" cy="79.16" r="1.7"/><circle cx="40.67" cy="62.59" r="1.7"/><circle cx="32.51" cy="86.38" r="1.7"/><circle cx="83.23" cy="74.51" r="1.7"/><circle cx="19.39" cy="75.92" r="1.7"/><circle cx="62.80" cy="91.00" r="1.7"/><circle cx="59.10" cy="75.33" r="1.7"/><circle cx="27.14" cy="89.92" r="1.7"/><circle cx="72.33" cy="89.51" r="1.7"/><circle cx="39.35" cy="84.85" r="1.7"/><circle cx="48.04" cy="95.95" r="1.7"/><circle cx="50.00" cy="93.66" r="1.7"/></g></g>
</svg>